<mxfile host="app.diagrams.net" modified="2022-03-29T17:18:32.369Z" agent="5.0 (Windows NT 10.0; Win64; x64) AppleWebKit/537.36 (KHTML, like Gecko) Chrome/99.0.4844.84 Safari/537.36" etag="BpmPkCVVPaei6Y1NXv1a" version="17.2.4" type="github">
  <diagram id="S2BJlB5IYYcXyMkxtvDG" name="Page-1">
    <mxGraphModel dx="1736" dy="916" grid="1" gridSize="10" guides="1" tooltips="1" connect="1" arrows="1" fold="1" page="1" pageScale="1" pageWidth="850" pageHeight="1100" math="0" shadow="0">
      <root>
        <mxCell id="0" />
        <mxCell id="1" parent="0" />
        <mxCell id="-6ngiOMe4KuTY77RiQFz-1" value="" style="rounded=0;whiteSpace=wrap;html=1;" vertex="1" parent="1">
          <mxGeometry x="280" y="40" width="160" height="60" as="geometry" />
        </mxCell>
        <mxCell id="-6ngiOMe4KuTY77RiQFz-3" value="&amp;lt;&amp;lt;entity&amp;gt;&amp;gt;" style="text;html=1;strokeColor=none;fillColor=none;align=center;verticalAlign=middle;whiteSpace=wrap;rounded=0;fontSize=19;" vertex="1" parent="1">
          <mxGeometry x="330" y="40" width="60" height="30" as="geometry" />
        </mxCell>
        <mxCell id="-6ngiOMe4KuTY77RiQFz-4" value="SmartHomeSystem" style="text;html=1;strokeColor=none;fillColor=none;align=center;verticalAlign=middle;whiteSpace=wrap;rounded=0;fontSize=16;" vertex="1" parent="1">
          <mxGeometry x="330" y="60" width="60" height="30" as="geometry" />
        </mxCell>
        <mxCell id="-6ngiOMe4KuTY77RiQFz-8" value="" style="rounded=0;whiteSpace=wrap;html=1;" vertex="1" parent="1">
          <mxGeometry x="100" y="40" width="100" height="60" as="geometry" />
        </mxCell>
        <mxCell id="-6ngiOMe4KuTY77RiQFz-9" value="&amp;lt;&amp;lt;entity&amp;gt;&amp;gt;" style="text;html=1;strokeColor=none;fillColor=none;align=center;verticalAlign=middle;whiteSpace=wrap;rounded=0;fontSize=18;" vertex="1" parent="1">
          <mxGeometry x="120" y="40" width="60" height="30" as="geometry" />
        </mxCell>
        <mxCell id="-6ngiOMe4KuTY77RiQFz-10" value="Resident" style="text;html=1;strokeColor=none;fillColor=none;align=center;verticalAlign=middle;whiteSpace=wrap;rounded=0;fontSize=16;" vertex="1" parent="1">
          <mxGeometry x="120" y="60" width="60" height="30" as="geometry" />
        </mxCell>
        <mxCell id="-6ngiOMe4KuTY77RiQFz-14" value="" style="rounded=0;whiteSpace=wrap;html=1;" vertex="1" parent="1">
          <mxGeometry x="460" y="260" width="220" height="160" as="geometry" />
        </mxCell>
        <mxCell id="-6ngiOMe4KuTY77RiQFz-15" value="&amp;lt;&amp;lt;entity&amp;gt;&amp;gt;" style="text;html=1;strokeColor=none;fillColor=none;align=center;verticalAlign=middle;whiteSpace=wrap;rounded=0;fontSize=19;" vertex="1" parent="1">
          <mxGeometry x="540" y="270" width="30" height="30" as="geometry" />
        </mxCell>
        <mxCell id="-6ngiOMe4KuTY77RiQFz-16" value="temperatureData" style="text;html=1;strokeColor=none;fillColor=none;align=center;verticalAlign=middle;whiteSpace=wrap;rounded=0;fontSize=16;" vertex="1" parent="1">
          <mxGeometry x="530" y="290" width="60" height="30" as="geometry" />
        </mxCell>
        <mxCell id="-6ngiOMe4KuTY77RiQFz-18" value="timeOn&lt;b&gt;&lt;font style=&quot;font-size: 18px&quot;&gt;:&lt;/font&gt;&lt;/b&gt;Time" style="text;html=1;strokeColor=none;fillColor=none;align=center;verticalAlign=middle;whiteSpace=wrap;rounded=0;fontSize=16;" vertex="1" parent="1">
          <mxGeometry x="485" y="320" width="60" height="30" as="geometry" />
        </mxCell>
        <mxCell id="-6ngiOMe4KuTY77RiQFz-19" value="currentTemperature&amp;nbsp;&lt;b&gt;&lt;font style=&quot;font-size: 18px&quot;&gt;:&amp;nbsp;&lt;/font&gt;&lt;/b&gt;float" style="text;html=1;strokeColor=none;fillColor=none;align=center;verticalAlign=middle;whiteSpace=wrap;rounded=0;fontSize=16;" vertex="1" parent="1">
          <mxGeometry x="460" y="340" width="200" height="30" as="geometry" />
        </mxCell>
        <mxCell id="-6ngiOMe4KuTY77RiQFz-20" value="desiredTemperature&lt;b&gt;&lt;font style=&quot;font-size: 18px&quot;&gt;:&lt;/font&gt;&lt;/b&gt;&amp;nbsp;float" style="text;html=1;strokeColor=none;fillColor=none;align=center;verticalAlign=middle;whiteSpace=wrap;rounded=0;fontSize=16;" vertex="1" parent="1">
          <mxGeometry x="460" y="360" width="200" height="30" as="geometry" />
        </mxCell>
        <mxCell id="-6ngiOMe4KuTY77RiQFz-21" value="timeOff&amp;nbsp;&lt;b&gt;&lt;font style=&quot;font-size: 18px&quot;&gt;:&amp;nbsp;&lt;/font&gt;&lt;/b&gt;Time" style="text;html=1;strokeColor=none;fillColor=none;align=center;verticalAlign=middle;whiteSpace=wrap;rounded=0;fontSize=16;" vertex="1" parent="1">
          <mxGeometry x="489" y="380" width="60" height="30" as="geometry" />
        </mxCell>
        <mxCell id="-6ngiOMe4KuTY77RiQFz-22" value="" style="endArrow=none;html=1;rounded=0;fontSize=19;" edge="1" parent="1">
          <mxGeometry width="50" height="50" relative="1" as="geometry">
            <mxPoint x="580" y="145" as="sourcePoint" />
            <mxPoint x="400" y="145" as="targetPoint" />
            <Array as="points">
              <mxPoint x="530" y="145" />
            </Array>
          </mxGeometry>
        </mxCell>
        <mxCell id="-6ngiOMe4KuTY77RiQFz-23" value="" style="endArrow=none;html=1;rounded=0;fontSize=19;exitX=0.2;exitY=1.011;exitDx=0;exitDy=0;exitPerimeter=0;" edge="1" parent="1" source="-6ngiOMe4KuTY77RiQFz-25">
          <mxGeometry width="50" height="50" relative="1" as="geometry">
            <mxPoint x="581.66" y="255.32" as="sourcePoint" />
            <mxPoint x="580" y="145" as="targetPoint" />
          </mxGeometry>
        </mxCell>
        <mxCell id="-6ngiOMe4KuTY77RiQFz-24" value="1" style="text;html=1;strokeColor=none;fillColor=none;align=center;verticalAlign=middle;whiteSpace=wrap;rounded=0;fontSize=19;" vertex="1" parent="1">
          <mxGeometry x="380" y="100" width="60" height="30" as="geometry" />
        </mxCell>
        <mxCell id="-6ngiOMe4KuTY77RiQFz-25" value="1" style="text;html=1;strokeColor=none;fillColor=none;align=center;verticalAlign=middle;whiteSpace=wrap;rounded=0;fontSize=19;" vertex="1" parent="1">
          <mxGeometry x="570" y="230" width="60" height="30" as="geometry" />
        </mxCell>
        <mxCell id="-6ngiOMe4KuTY77RiQFz-26" value="" style="rounded=0;whiteSpace=wrap;html=1;" vertex="1" parent="1">
          <mxGeometry x="210" y="250" width="200" height="160" as="geometry" />
        </mxCell>
        <mxCell id="-6ngiOMe4KuTY77RiQFz-27" value="&amp;lt;&amp;lt;entity&amp;gt;&amp;gt;" style="text;html=1;strokeColor=none;fillColor=none;align=center;verticalAlign=middle;whiteSpace=wrap;rounded=0;fontSize=19;" vertex="1" parent="1">
          <mxGeometry x="290" y="260" width="30" height="30" as="geometry" />
        </mxCell>
        <mxCell id="-6ngiOMe4KuTY77RiQFz-28" value="automilageSensorData" style="text;html=1;strokeColor=none;fillColor=none;align=center;verticalAlign=middle;whiteSpace=wrap;rounded=0;fontSize=16;" vertex="1" parent="1">
          <mxGeometry x="275" y="280" width="60" height="30" as="geometry" />
        </mxCell>
        <mxCell id="-6ngiOMe4KuTY77RiQFz-29" value="gasUsed &lt;b&gt;&lt;font style=&quot;font-size: 18px&quot;&gt;:&lt;/font&gt;&lt;/b&gt; int" style="text;html=1;strokeColor=none;fillColor=none;align=center;verticalAlign=middle;whiteSpace=wrap;rounded=0;fontSize=16;" vertex="1" parent="1">
          <mxGeometry x="205" y="310" width="125" height="30" as="geometry" />
        </mxCell>
        <mxCell id="-6ngiOMe4KuTY77RiQFz-30" value="currentTemperature&amp;nbsp;&lt;b&gt;&lt;font style=&quot;font-size: 18px&quot;&gt;:&amp;nbsp;&lt;/font&gt;&lt;/b&gt;float" style="text;html=1;strokeColor=none;fillColor=none;align=center;verticalAlign=middle;whiteSpace=wrap;rounded=0;fontSize=16;" vertex="1" parent="1">
          <mxGeometry x="210" y="330" width="200" height="30" as="geometry" />
        </mxCell>
        <mxCell id="-6ngiOMe4KuTY77RiQFz-31" value="desiredTemperature&amp;nbsp;&lt;b&gt;&lt;font style=&quot;font-size: 18px&quot;&gt;:&amp;nbsp;&lt;/font&gt;&lt;/b&gt;float" style="text;html=1;strokeColor=none;fillColor=none;align=center;verticalAlign=middle;whiteSpace=wrap;rounded=0;fontSize=16;" vertex="1" parent="1">
          <mxGeometry x="210" y="350" width="200" height="30" as="geometry" />
        </mxCell>
        <mxCell id="-6ngiOMe4KuTY77RiQFz-32" value="timeOff&amp;nbsp;&lt;b&gt;&lt;font style=&quot;font-size: 18px&quot;&gt;:&amp;nbsp;&lt;/font&gt;&lt;/b&gt;Time" style="text;html=1;strokeColor=none;fillColor=none;align=center;verticalAlign=middle;whiteSpace=wrap;rounded=0;fontSize=16;" vertex="1" parent="1">
          <mxGeometry x="237.5" y="370" width="60" height="30" as="geometry" />
        </mxCell>
        <mxCell id="-6ngiOMe4KuTY77RiQFz-33" value="1" style="text;html=1;strokeColor=none;fillColor=none;align=center;verticalAlign=middle;whiteSpace=wrap;rounded=0;fontSize=19;" vertex="1" parent="1">
          <mxGeometry x="320" y="220" width="60" height="30" as="geometry" />
        </mxCell>
        <mxCell id="-6ngiOMe4KuTY77RiQFz-34" value="" style="endArrow=none;html=1;rounded=0;fontSize=18;entryX=0.5;entryY=1;entryDx=0;entryDy=0;" edge="1" parent="1" target="-6ngiOMe4KuTY77RiQFz-1">
          <mxGeometry width="50" height="50" relative="1" as="geometry">
            <mxPoint x="360" y="250" as="sourcePoint" />
            <mxPoint x="790" y="250" as="targetPoint" />
          </mxGeometry>
        </mxCell>
        <mxCell id="-6ngiOMe4KuTY77RiQFz-35" value="1" style="text;html=1;strokeColor=none;fillColor=none;align=center;verticalAlign=middle;whiteSpace=wrap;rounded=0;fontSize=19;" vertex="1" parent="1">
          <mxGeometry x="300" y="100" width="60" height="30" as="geometry" />
        </mxCell>
        <mxCell id="-6ngiOMe4KuTY77RiQFz-36" value="" style="rounded=0;whiteSpace=wrap;html=1;" vertex="1" parent="1">
          <mxGeometry x="20" y="275" width="170" height="85" as="geometry" />
        </mxCell>
        <mxCell id="-6ngiOMe4KuTY77RiQFz-37" value="&amp;lt;&amp;lt;entity&amp;gt;&amp;gt;" style="text;html=1;strokeColor=none;fillColor=none;align=center;verticalAlign=middle;whiteSpace=wrap;rounded=0;fontSize=19;" vertex="1" parent="1">
          <mxGeometry x="70" y="275" width="60" height="30" as="geometry" />
        </mxCell>
        <mxCell id="-6ngiOMe4KuTY77RiQFz-38" value="motionSensorData" style="text;html=1;strokeColor=none;fillColor=none;align=center;verticalAlign=middle;whiteSpace=wrap;rounded=0;fontSize=16;" vertex="1" parent="1">
          <mxGeometry x="80" y="290" width="40" height="40" as="geometry" />
        </mxCell>
        <mxCell id="-6ngiOMe4KuTY77RiQFz-40" value="timeRecorded&amp;nbsp;&lt;b&gt;&lt;font style=&quot;font-size: 18px&quot;&gt;:&amp;nbsp;&lt;/font&gt;&lt;/b&gt;Time&lt;b&gt;&lt;font style=&quot;font-size: 18px&quot;&gt;&lt;br&gt;&amp;nbsp; &amp;nbsp;&amp;nbsp;&lt;/font&gt;&lt;/b&gt;" style="text;html=1;strokeColor=none;fillColor=none;align=center;verticalAlign=middle;whiteSpace=wrap;rounded=0;fontSize=16;" vertex="1" parent="1">
          <mxGeometry x="5" y="340" width="200" height="30" as="geometry" />
        </mxCell>
        <mxCell id="-6ngiOMe4KuTY77RiQFz-41" value="" style="endArrow=none;html=1;rounded=0;fontSize=18;entryX=0.627;entryY=0.02;entryDx=0;entryDy=0;entryPerimeter=0;" edge="1" parent="1" target="-6ngiOMe4KuTY77RiQFz-37">
          <mxGeometry width="50" height="50" relative="1" as="geometry">
            <mxPoint x="108" y="140" as="sourcePoint" />
            <mxPoint x="370" y="110" as="targetPoint" />
          </mxGeometry>
        </mxCell>
        <mxCell id="-6ngiOMe4KuTY77RiQFz-42" value="" style="endArrow=none;html=1;rounded=0;fontSize=16;" edge="1" parent="1">
          <mxGeometry width="50" height="50" relative="1" as="geometry">
            <mxPoint x="110" y="140" as="sourcePoint" />
            <mxPoint x="300" y="140" as="targetPoint" />
          </mxGeometry>
        </mxCell>
        <mxCell id="-6ngiOMe4KuTY77RiQFz-44" value="" style="endArrow=none;html=1;rounded=0;fontSize=16;entryX=0;entryY=0;entryDx=0;entryDy=0;" edge="1" parent="1" target="-6ngiOMe4KuTY77RiQFz-35">
          <mxGeometry width="50" height="50" relative="1" as="geometry">
            <mxPoint x="300" y="140" as="sourcePoint" />
            <mxPoint x="360" y="180" as="targetPoint" />
          </mxGeometry>
        </mxCell>
        <mxCell id="-6ngiOMe4KuTY77RiQFz-45" value="1" style="text;html=1;strokeColor=none;fillColor=none;align=center;verticalAlign=middle;whiteSpace=wrap;rounded=0;fontSize=19;" vertex="1" parent="1">
          <mxGeometry x="260" y="100" width="60" height="30" as="geometry" />
        </mxCell>
        <mxCell id="-6ngiOMe4KuTY77RiQFz-46" value="*" style="text;html=1;strokeColor=none;fillColor=none;align=center;verticalAlign=middle;whiteSpace=wrap;rounded=0;fontSize=19;" vertex="1" parent="1">
          <mxGeometry x="100" y="245" width="60" height="30" as="geometry" />
        </mxCell>
        <mxCell id="-6ngiOMe4KuTY77RiQFz-47" value="" style="rounded=0;whiteSpace=wrap;html=1;" vertex="1" parent="1">
          <mxGeometry x="725" y="260" width="200" height="160" as="geometry" />
        </mxCell>
        <mxCell id="-6ngiOMe4KuTY77RiQFz-48" value="&amp;lt;&amp;lt;entity&amp;gt;&amp;gt;" style="text;html=1;strokeColor=none;fillColor=none;align=center;verticalAlign=middle;whiteSpace=wrap;rounded=0;fontSize=19;" vertex="1" parent="1">
          <mxGeometry x="805" y="270" width="30" height="30" as="geometry" />
        </mxCell>
        <mxCell id="-6ngiOMe4KuTY77RiQFz-49" value="automilageSensorData" style="text;html=1;strokeColor=none;fillColor=none;align=center;verticalAlign=middle;whiteSpace=wrap;rounded=0;fontSize=16;" vertex="1" parent="1">
          <mxGeometry x="790" y="290" width="60" height="30" as="geometry" />
        </mxCell>
        <mxCell id="-6ngiOMe4KuTY77RiQFz-50" value="gasUsed &lt;b&gt;&lt;font style=&quot;font-size: 18px&quot;&gt;:&lt;/font&gt;&lt;/b&gt; int" style="text;html=1;strokeColor=none;fillColor=none;align=center;verticalAlign=middle;whiteSpace=wrap;rounded=0;fontSize=16;" vertex="1" parent="1">
          <mxGeometry x="720" y="320" width="125" height="30" as="geometry" />
        </mxCell>
        <mxCell id="-6ngiOMe4KuTY77RiQFz-51" value="currentTemperature&amp;nbsp;&lt;b&gt;&lt;font style=&quot;font-size: 18px&quot;&gt;:&amp;nbsp;&lt;/font&gt;&lt;/b&gt;float" style="text;html=1;strokeColor=none;fillColor=none;align=center;verticalAlign=middle;whiteSpace=wrap;rounded=0;fontSize=16;" vertex="1" parent="1">
          <mxGeometry x="725" y="340" width="200" height="30" as="geometry" />
        </mxCell>
        <mxCell id="-6ngiOMe4KuTY77RiQFz-52" value="desiredTemperature&amp;nbsp;&lt;b&gt;&lt;font style=&quot;font-size: 18px&quot;&gt;:&amp;nbsp;&lt;/font&gt;&lt;/b&gt;float" style="text;html=1;strokeColor=none;fillColor=none;align=center;verticalAlign=middle;whiteSpace=wrap;rounded=0;fontSize=16;" vertex="1" parent="1">
          <mxGeometry x="725" y="360" width="200" height="30" as="geometry" />
        </mxCell>
        <mxCell id="-6ngiOMe4KuTY77RiQFz-53" value="timeOff&amp;nbsp;&lt;b&gt;&lt;font style=&quot;font-size: 18px&quot;&gt;:&amp;nbsp;&lt;/font&gt;&lt;/b&gt;Time" style="text;html=1;strokeColor=none;fillColor=none;align=center;verticalAlign=middle;whiteSpace=wrap;rounded=0;fontSize=16;" vertex="1" parent="1">
          <mxGeometry x="752.5" y="380" width="60" height="30" as="geometry" />
        </mxCell>
        <mxCell id="-6ngiOMe4KuTY77RiQFz-54" value="" style="endArrow=none;html=1;rounded=0;fontSize=16;entryX=0.757;entryY=1.015;entryDx=0;entryDy=0;entryPerimeter=0;" edge="1" parent="1">
          <mxGeometry width="50" height="50" relative="1" as="geometry">
            <mxPoint x="400" y="145" as="sourcePoint" />
            <mxPoint x="400.12" y="100.9" as="targetPoint" />
          </mxGeometry>
        </mxCell>
      </root>
    </mxGraphModel>
  </diagram>
</mxfile>
